<svg id="Layer_1" data-name="Layer 1" xmlns="http://www.w3.org/2000/svg" viewBox="0 0 966.882 602.396">
  <defs>
    <style>
      .cls-1 {
        fill: #cc5a5a;
      }

      .cls-2 {
        font-size: 259.451px;
        fill: #894670;
        font-family: Raleway;
      }

      .cls-3 {
        letter-spacing: -0.017em;
      }

      .cls-4 {
        letter-spacing: -0.027em;
      }
    </style>
  </defs>
  <title>jiggyart_logo</title>
  <g>
    <path class="cls-1" d="M49.1,298.118a87.28,87.28,0,0,1-26-3.773,57.194,57.194,0,0,1-21.8-12.579l13.838-19.288a36.188,36.188,0,0,0,14.674,7.966,62.5,62.5,0,0,0,15.934,2.1,36.736,36.736,0,0,0,14.466-2.935,40.68,40.68,0,0,0,12.37-8.176,41.715,41.715,0,0,0,8.8-12.37,36.02,36.02,0,0,0,3.355-15.513V3.773h28.512v228.1a64.935,64.935,0,0,1-5.452,26.836,67.738,67.738,0,0,1-14.464,20.964A65.213,65.213,0,0,1,72.784,293.3,60.935,60.935,0,0,1,49.1,298.118Z" transform="translate(-1.294 0)"/>
    <rect class="cls-1" x="173.165" y="3.773" width="28.512" height="218.452"/>
    <path class="cls-1" d="M352.656,225.161a90.2,90.2,0,0,1-41.3-9.434,106.422,106.422,0,0,1-32.285-24.948,114.148,114.148,0,0,1-21.174-35.64,117.261,117.261,0,0,1-7.549-41.51,129.187,129.187,0,0,1,7.339-43.4,111.588,111.588,0,0,1,20.755-36.268A101.344,101.344,0,0,1,310.516,9.224,91.952,91.952,0,0,1,351.817,0Q379.9,0,400.455,14.046a135.017,135.017,0,0,1,35.222,35.43V3.773h25.575V223.064q0,22.643-8.594,40.043A86.183,86.183,0,0,1,429.6,292.248a98.009,98.009,0,0,1-34.172,17.61,144.747,144.747,0,0,1-41.51,5.871q-37.324,0-60.378-13.418a107.148,107.148,0,0,1-37.318-36.06l17.61-13.836q12.993,20.961,34.382,30.818a107.951,107.951,0,0,0,45.7,9.854,103.849,103.849,0,0,0,30.4-4.4,74.2,74.2,0,0,0,25.157-13,61.356,61.356,0,0,0,16.982-21.8q6.288-13.206,6.289-30.818V179.877A94.713,94.713,0,0,1,398.148,213,91.32,91.32,0,0,1,352.656,225.161Zm7.966-23.9a69.161,69.161,0,0,0,24.738-4.612,82.708,82.708,0,0,0,22.013-12.369,81.053,81.053,0,0,0,16.563-17.4,53.788,53.788,0,0,0,8.805-19.707V79.665a82.125,82.125,0,0,0-12.788-21.8,92.182,92.182,0,0,0-18.24-17.191A91.2,91.2,0,0,0,380.119,29.35a67.789,67.789,0,0,0-23.271-4.193q-18.454,0-32.705,7.757A79.5,79.5,0,0,0,299.825,53.25a90.417,90.417,0,0,0-15.3,28.512,102.6,102.6,0,0,0-5.241,32.286,91.6,91.6,0,0,0,23.479,61.426,80.368,80.368,0,0,0,25.788,18.869A75.13,75.13,0,0,0,360.622,201.261Z" transform="translate(-1.294 0)"/>
    <path class="cls-1" d="M610.94,225.161a90.207,90.207,0,0,1-41.3-9.434,106.447,106.447,0,0,1-32.285-24.948,114.148,114.148,0,0,1-21.174-35.64,117.26,117.26,0,0,1-7.548-41.51,129.187,129.187,0,0,1,7.338-43.4,111.606,111.606,0,0,1,20.755-36.268A101.367,101.367,0,0,1,568.8,9.224,91.957,91.957,0,0,1,610.1,0q28.086,0,48.638,14.046a135.014,135.014,0,0,1,35.221,35.43V3.773h25.576V223.064q0,22.643-8.594,40.043a86.2,86.2,0,0,1-23.062,29.141,98.027,98.027,0,0,1-34.172,17.61,144.757,144.757,0,0,1-41.51,5.871q-37.324,0-60.379-13.418a107.156,107.156,0,0,1-37.318-36.06l17.611-13.836q12.993,20.961,34.382,30.818a107.947,107.947,0,0,0,45.7,9.854,103.842,103.842,0,0,0,30.4-4.4,74.191,74.191,0,0,0,25.157-13,61.356,61.356,0,0,0,16.982-21.8q6.288-13.206,6.289-30.818V179.877A94.7,94.7,0,0,1,656.432,213,91.325,91.325,0,0,1,610.94,225.161Zm7.965-23.9a69.167,69.167,0,0,0,24.739-4.612,82.739,82.739,0,0,0,22.013-12.369,81.077,81.077,0,0,0,16.563-17.4,53.769,53.769,0,0,0,8.8-19.707V79.665a82.1,82.1,0,0,0-12.788-21.8A92.15,92.15,0,0,0,660,40.671,91.229,91.229,0,0,0,638.4,29.35a67.784,67.784,0,0,0-23.27-4.193q-18.456,0-32.706,7.757A79.514,79.514,0,0,0,558.108,53.25a90.415,90.415,0,0,0-15.3,28.512,102.6,102.6,0,0,0-5.242,32.286,91.6,91.6,0,0,0,23.479,61.426,80.368,80.368,0,0,0,25.788,18.869A75.134,75.134,0,0,0,618.905,201.261Z" transform="translate(-1.294 0)"/>
    <path class="cls-1" d="M793.329,289.732c1.4.275,2.792.485,4.194.629s2.792.209,4.194.209a53.071,53.071,0,0,0,9.015-.838,38.892,38.892,0,0,0,6.917-1.677,12.126,12.126,0,0,0,4.4-3.564,56.3,56.3,0,0,0,5.871-9.644q3.556-6.918,9.014-19.288t13.838-33.333L755.594,3.773h29.77L866.287,195.81,940.922,3.773h27.254L854.547,285.539q-6.288,15.509-16.982,23.062t-29.978,7.547a73.06,73.06,0,0,1-14.258-1.258Z" transform="translate(-1.294 0)"/>
  </g>
  <text class="cls-2" transform="translate(469.348 544.279)">A<tspan class="cls-3" x="176.164" y="0">R</tspan><tspan class="cls-4" x="342.989" y="0">T</tspan></text>
</svg>
